<?xml version="1.0" standalone="no"?>
<!DOCTYPE svg PUBLIC "-//W3C//DTD SVG 20010904//EN"
 "http://www.w3.org/TR/2001/REC-SVG-20010904/DTD/svg10.dtd">
<svg version="1.0" xmlns="http://www.w3.org/2000/svg"
 width="946.000000pt" height="335.000000pt" viewBox="0 0 946.000000 335.000000"
 preserveAspectRatio="xMidYMid meet">

<g transform="translate(0.000000,335.000000) scale(0.100000,-0.100000)"
fill="#000000" stroke="none">
<path d="M3527 3086 c-76 -28 -119 -89 -121 -171 -1 -93 67 -172 158 -182 78
-9 111 10 231 132 97 99 115 114 152 120 78 13 149 -41 160 -122 8 -57 -19
-107 -73 -139 -51 -30 -116 -34 -299 -21 -127 10 -156 1 -209 -66 -28 -35 -31
-46 -31 -107 0 -61 3 -72 31 -107 17 -21 46 -46 65 -55 72 -37 183 -13 227 49
23 32 46 109 37 123 -12 20 -35 9 -40 -17 -28 -136 -179 -179 -255 -72 -49 67
-26 159 50 203 31 18 40 19 140 8 141 -16 196 -15 259 4 61 18 125 76 136 123
4 17 11 31 16 31 8 0 352 -320 363 -339 3 -4 -44 -54 -104 -110 l-110 -102
-29 23 c-16 13 -99 90 -185 172 -104 99 -161 146 -171 142 -8 -3 -15 -9 -15
-14 0 -10 73 -82 256 -252 56 -52 102 -98 103 -102 0 -3 -77 -80 -171 -169
-95 -90 -176 -169 -180 -175 -4 -7 -1 -17 7 -24 11 -9 46 19 195 160 100 94
185 170 190 168 20 -8 219 -201 215 -209 -12 -19 -356 -339 -364 -339 -5 0
-12 14 -16 30 -4 17 -18 44 -32 61 -59 70 -156 90 -345 69 -99 -10 -119 -10
-151 3 -99 42 -104 202 -8 252 38 19 94 19 132 0 34 -18 69 -69 69 -101 0 -27
27 -51 41 -37 26 26 -18 125 -72 166 -30 22 -101 33 -153 23 -70 -13 -136 -98
-136 -176 0 -51 32 -113 76 -146 41 -32 40 -32 304 -23 105 4 119 2 158 -19
52 -28 82 -74 82 -127 0 -77 -63 -138 -141 -137 -57 1 -87 22 -182 125 -94
102 -132 127 -196 127 -57 0 -100 -20 -138 -63 -92 -105 -47 -258 88 -299 69
-20 171 17 156 57 -6 14 -9 14 -36 0 -66 -34 -155 -11 -191 48 -48 78 -6 184
83 208 66 18 108 -6 210 -116 49 -53 106 -104 128 -115 49 -25 109 -25 158 0
41 20 91 73 91 95 0 7 21 32 48 55 l47 41 67 -71 c36 -38 73 -70 82 -70 32 0
14 36 -51 102 l-68 68 48 48 48 47 48 -52 c48 -53 81 -68 81 -36 0 10 -21 39
-47 65 l-47 48 69 71 c39 39 78 75 87 80 13 7 34 -7 100 -70 l83 -79 -47 -49
c-46 -47 -62 -83 -36 -83 7 0 36 23 64 51 l52 52 49 -46 48 -46 -73 -75 c-68
-70 -81 -96 -47 -96 7 0 43 31 81 70 l67 70 42 -38 c24 -20 48 -49 55 -63 15
-35 68 -85 103 -98 61 -23 139 -7 197 42 15 13 57 58 94 99 72 83 126 114 182
103 93 -17 144 -131 94 -212 -36 -59 -112 -79 -185 -49 -29 12 -36 12 -45 1
-9 -11 -5 -18 20 -34 74 -44 160 -34 221 28 115 114 33 311 -130 311 -63 0
-96 -22 -206 -135 -76 -79 -109 -106 -138 -114 -66 -17 -138 16 -163 74 -30
74 -7 141 65 183 44 26 51 27 161 23 269 -9 264 -9 307 25 84 68 98 184 30
261 -99 112 -277 73 -315 -70 -13 -45 -6 -69 17 -65 9 2 18 17 21 38 17 101
128 153 211 97 95 -63 87 -190 -15 -241 -35 -17 -47 -18 -132 -7 -232 28 -346
-5 -390 -114 -11 -25 -22 -45 -25 -45 -4 0 -88 77 -188 172 l-182 171 107 101
c59 56 111 102 115 104 5 2 90 -73 189 -167 122 -115 185 -168 196 -164 8 3
14 11 12 18 -2 7 -83 89 -182 181 l-178 168 178 171 c138 133 176 175 171 189
-4 10 -11 16 -16 14 -5 -2 -89 -78 -186 -170 -98 -93 -180 -168 -184 -168 -3
0 -55 46 -115 103 l-108 102 93 90 c290 279 278 269 285 249 19 -58 30 -77 60
-104 66 -57 152 -70 344 -48 100 11 109 10 141 -8 128 -75 69 -276 -78 -261
-71 7 -109 46 -128 130 -4 20 -11 27 -23 25 -44 -8 -9 -117 54 -164 33 -26 45
-29 109 -29 63 0 76 3 108 28 94 72 100 209 12 286 -47 41 -86 46 -235 32
-137 -13 -183 -9 -243 21 -119 59 -93 239 38 264 57 10 111 -23 205 -126 117
-128 189 -157 278 -111 72 37 102 88 102 169 -1 117 -110 201 -223 171 -54
-14 -81 -37 -66 -55 9 -11 16 -11 40 1 15 8 47 15 70 15 159 0 191 -226 38
-270 -69 -20 -96 -6 -209 111 -134 138 -186 162 -278 124 -45 -19 -72 -44
-107 -98 -15 -23 -42 -54 -60 -69 l-33 -28 -64 68 c-77 82 -82 86 -98 68 -9
-12 2 -29 61 -92 l72 -78 -48 -44 -48 -43 -51 50 c-29 28 -57 51 -64 51 -26 0
-10 -36 36 -83 l47 -49 -84 -79 -83 -79 -27 19 c-14 11 -53 47 -86 80 l-59 61
47 48 c26 26 47 55 47 65 0 32 -33 17 -81 -35 l-48 -53 -48 47 -48 48 68 68
c64 64 79 93 57 107 -5 3 -42 -28 -82 -70 l-73 -75 -47 41 c-27 22 -48 47 -48
54 0 24 -53 77 -95 96 -95 44 -149 21 -285 -120 -92 -95 -110 -109 -147 -116
-147 -24 -225 176 -100 254 41 25 113 28 145 5 24 -16 42 -12 42 11 0 37 -113
63 -173 41z m1154 -748 l110 -102 -108 -102 c-59 -57 -112 -103 -117 -103 -4
-1 -58 45 -119 101 l-110 103 109 102 c60 56 113 103 117 103 5 0 58 -46 118
-102z"/>
<path d="M3550 2950 c-11 -11 -20 -28 -20 -38 0 -24 31 -52 58 -52 47 0 69 61
34 93 -25 22 -48 21 -72 -3z"/>
<path d="M5512 2954 c-24 -17 -30 -62 -10 -82 21 -21 66 -14 83 12 24 36 -2
86 -44 86 -3 0 -17 -7 -29 -16z"/>
<path d="M3932 2888 c-17 -17 -15 -64 4 -82 45 -45 114 17 79 70 -17 26 -62
33 -83 12z"/>
<path d="M5114 2875 c-13 -21 -15 -31 -6 -50 25 -55 102 -35 102 26 0 51 -68
67 -96 24z"/>
<path d="M3649 2576 c-27 -13 -37 -59 -18 -82 15 -19 64 -18 83 2 43 42 -10
108 -65 80z"/>
<path d="M5429 2576 c-27 -13 -35 -45 -19 -76 9 -17 19 -20 47 -18 44 4 61 26
48 64 -12 33 -44 46 -76 30z"/>
<path d="M3642 1984 c-48 -33 -8 -111 49 -97 46 12 49 81 4 101 -32 15 -26 15
-53 -4z"/>
<path d="M5433 1990 c-43 -17 -39 -91 6 -103 57 -14 97 64 49 97 -25 18 -25
18 -55 6z"/>
<path d="M3936 1664 c-9 -8 -16 -29 -16 -45 0 -38 37 -58 75 -41 45 21 25 102
-25 102 -10 0 -26 -7 -34 -16z"/>
<path d="M5120 1660 c-11 -11 -20 -26 -20 -33 0 -24 31 -57 55 -57 50 0 73 60
37 93 -25 22 -48 21 -72 -3z"/>
<path d="M3545 1590 c-23 -25 -13 -67 20 -82 52 -23 100 46 59 86 -21 22 -57
20 -79 -4z"/>
<path d="M5508 1599 c-28 -16 -23 -65 7 -85 51 -33 104 21 71 71 -17 26 -48
32 -78 14z"/>
<path d="M4386 839 c-60 -65 -69 -84 -33 -74 38 11 147 66 147 74 0 12 -40 61
-50 61 -4 0 -33 -27 -64 -61z"/>
<path d="M2268 492 c2 -147 0 -277 -3 -289 -3 -14 -17 -26 -38 -32 -24 -7 1
-9 98 -9 72 0 121 3 110 5 -44 11 -45 18 -45 205 l0 180 95 -88 c52 -49 147
-139 212 -200 l118 -112 -3 266 c-2 145 -1 275 2 288 4 16 17 27 39 33 24 7
-1 9 -98 9 -71 0 -119 -3 -105 -7 42 -12 50 -43 50 -214 0 -132 -2 -158 -14
-155 -8 2 -101 87 -208 189 -106 102 -197 188 -203 191 -7 4 -9 -85 -7 -260z"/>
<path d="M207 740 c40 -17 43 -39 43 -287 0 -256 -4 -276 -53 -286 -12 -3 61
-5 163 -4 173 2 188 4 233 26 62 30 87 70 87 137 0 64 -28 109 -87 139 -39 19
-41 21 -21 30 31 14 58 55 64 96 9 52 -17 100 -69 130 -39 22 -53 24 -212 26
-112 2 -163 0 -148 -7z m267 -53 c53 -53 39 -157 -26 -197 -26 -16 -29 -20
-13 -20 27 0 76 -33 91 -62 18 -32 17 -113 -1 -148 -19 -37 -63 -60 -115 -60
l-40 0 0 255 0 255 40 0 c30 0 47 -7 64 -23z"/>
<path d="M1785 740 c-104 -3 -183 -7 -174 -8 9 -1 23 -10 32 -20 15 -16 17
-50 17 -269 0 -225 -2 -251 -17 -265 -10 -9 -27 -18 -38 -21 -11 -2 80 -5 202
-6 l221 -1 12 53 c6 28 14 60 17 70 3 11 -17 -4 -44 -32 l-49 -51 -92 0 -92 0
0 115 0 115 75 0 c62 0 79 -4 95 -20 l20 -20 0 61 0 60 -26 -20 c-21 -17 -41
-21 -95 -21 l-69 0 0 120 0 120 92 0 c80 0 95 -3 115 -21 19 -19 23 -20 28 -6
4 8 5 28 3 44 -4 33 17 31 -233 23z"/>
<path d="M3005 743 c45 -12 45 -13 45 -282 0 -141 -4 -261 -8 -268 -4 -7 -19
-16 -32 -22 -36 -14 304 -14 372 0 156 33 236 142 226 308 -7 119 -58 195
-163 243 -46 21 -65 23 -255 25 -113 1 -196 -1 -185 -4z m361 -46 c72 -37 108
-118 108 -242 0 -113 -27 -182 -87 -226 -37 -27 -47 -29 -129 -29 l-88 0 0
253 c0 140 3 257 8 261 11 13 156 0 188 -17z"/>
<path d="M875 733 c45 -12 45 -13 45 -282 0 -270 -2 -284 -45 -294 -11 -3 39
-5 110 -5 72 0 121 3 110 5 -45 11 -45 13 -45 284 l0 259 53 0 c71 0 98 -27
105 -104 7 -90 -33 -146 -105 -146 l-27 0 23 -21 c12 -12 42 -62 67 -112 25
-51 55 -102 66 -115 30 -31 108 -52 187 -51 58 1 62 2 34 10 -34 10 -71 51
-141 156 -23 33 -53 70 -68 82 l-26 21 28 11 c62 23 96 77 96 150 -1 64 -24
104 -75 131 -39 21 -56 23 -227 25 -102 1 -176 -1 -165 -4z"/>
<path d="M3980 733 c0 -22 -233 -538 -252 -560 -11 -12 -30 -24 -42 -26 -11
-2 22 -5 74 -5 63 0 88 2 74 8 -36 14 -37 28 -8 96 l27 64 97 0 98 0 21 -49
c30 -72 31 -92 1 -108 -22 -11 -6 -13 115 -12 77 1 131 4 120 7 -46 15 -60 39
-180 302 -119 259 -145 310 -145 283z m14 -283 c20 -50 36 -95 36 -100 0 -6
-34 -10 -80 -10 -44 0 -80 2 -80 5 0 13 78 195 84 195 2 0 20 -41 40 -90z"/>
<path d="M4830 729 c-65 -26 -108 -106 -95 -175 9 -49 47 -88 161 -165 56 -37
110 -79 118 -91 24 -33 19 -66 -12 -98 -76 -76 -222 -30 -250 77 l-9 38 -12
-29 c-7 -17 -11 -48 -9 -70 3 -37 7 -43 42 -60 56 -27 170 -33 233 -12 80 27
123 83 123 163 0 72 -25 104 -147 184 -137 90 -143 96 -143 134 0 52 38 80
112 80 58 0 62 -2 93 -38 l33 -38 4 49 3 50 -44 6 c-65 9 -172 6 -201 -5z"/>
<path d="M5730 721 c45 -13 50 -39 50 -286 0 -247 -5 -273 -50 -286 -14 -4 34
-7 105 -7 95 -1 123 2 105 9 -13 6 -28 15 -32 22 -4 7 -8 65 -8 130 l0 118
138 -3 137 -3 3 -105 c2 -116 -8 -150 -48 -161 -14 -4 34 -7 105 -7 95 -1 123
2 105 9 -13 6 -28 15 -32 22 -4 7 -8 125 -8 263 0 262 2 277 45 287 11 3 -38
5 -110 4 -71 0 -120 -2 -107 -4 43 -8 53 -41 50 -159 l-3 -109 -137 -3 -138
-3 0 124 c0 129 3 139 45 150 11 2 -38 5 -110 5 -71 0 -119 -3 -105 -7z"/>
<path d="M6815 716 c-92 -29 -149 -78 -187 -161 -31 -70 -31 -189 1 -261 47
-107 140 -165 278 -172 118 -6 208 22 273 87 64 64 84 124 78 241 -4 76 -8 95
-34 136 -37 61 -100 109 -166 129 -62 18 -187 19 -243 1z m191 -35 c84 -38
131 -151 121 -287 -12 -167 -100 -258 -229 -238 -60 10 -120 70 -142 143 -20
69 -21 182 0 250 36 123 144 180 250 132z"/>
<path d="M7460 671 l0 -44 26 24 c21 20 38 24 100 27 l74 4 0 -266 0 -267 -32
-14 c-31 -13 -23 -14 97 -13 72 0 121 3 110 5 -45 11 -45 13 -45 290 l0 265
76 -4 c69 -3 79 -6 100 -31 l24 -28 0 48 0 48 -265 0 -265 0 0 -44z"/>
<path d="M8380 710 c-107 -3 -186 -7 -174 -8 43 -4 44 -14 44 -288 0 -274 0
-276 -45 -287 -11 -3 79 -4 200 -3 l220 1 11 50 c20 83 17 94 -11 52 -37 -53
-70 -67 -165 -67 l-80 0 0 115 0 115 72 0 c60 0 76 -4 95 -22 l23 -21 0 68 0
68 -25 -27 c-22 -23 -31 -26 -95 -26 l-70 0 0 120 0 120 88 0 c91 0 109 -6
130 -45 9 -16 11 -10 12 38 0 49 -3 57 -17 55 -10 -1 -106 -5 -213 -8z"/>
<path d="M8855 713 c45 -11 45 -13 45 -282 0 -141 -4 -261 -8 -268 -4 -7 -19
-16 -32 -22 -18 -7 40 -9 194 -8 l220 2 12 55 c19 80 17 89 -11 47 -37 -53
-70 -67 -165 -67 l-80 0 0 259 c0 271 0 273 45 284 11 2 -38 5 -110 5 -71 0
-121 -3 -110 -5z"/>
</g>
</svg>
